<?xml version="1.0" encoding="UTF-8"?>
<svg version="1.1" xmlns="http://www.w3.org/2000/svg" width="294" height="286">
<path d="M0 0 C3.0057135 1.35792197 5.47083167 3.22602454 8.0625 5.25 C8.79073975 5.79140625 9.51897949 6.3328125 10.26928711 6.890625 C12.52745016 8.57529019 14.76333968 10.28693949 17 12 C18.36268453 13.01817124 19.72720845 14.03388635 21.09375 15.046875 C24.41897048 17.51673592 27.72695646 20.00844561 31.02929688 22.50878906 C34.28451663 24.97198062 37.54787107 27.42429892 40.8125 29.875 C41.4626709 30.36339355 42.1128418 30.85178711 42.78271484 31.35498047 C48.05982021 35.31184628 53.37129559 39.2208959 58.6875 43.125 C65.11900209 47.85023754 71.4842812 52.64300908 77.79296875 57.53125 C81.33329662 60.26760779 84.91563625 62.94673068 88.5 65.625 C96.06729466 71.27935165 103.58047742 77.00340091 111.08203125 82.74462891 C111.93796875 83.39866699 112.79390625 84.05270508 113.67578125 84.7265625 C114.43802002 85.31002441 115.20025879 85.89348633 115.9855957 86.49462891 C117.61921704 87.71543961 119.30312783 88.86875189 121 90 C121.3125 93 121.3125 93 121 96 C120.34 96.66 119.68 97.32 119 98 C114.86169011 97.69903201 112.48152976 97.32101984 109 95 C108.99167138 103.07644335 109.01572249 111.15188473 109.0802784 119.2280426 C109.10926054 122.97885612 109.12739418 126.72904814 109.12011719 130.47998047 C109.11349397 134.10498496 109.13617486 137.7287646 109.17855453 141.35351562 C109.18963323 142.73123815 109.19043327 144.1090857 109.18042374 145.48681641 C109.1245949 154.30699978 109.83571518 159.56822769 116 166 C117.609375 168.72265625 117.609375 168.72265625 118.75 171.0625 C119.33007812 172.22458984 119.33007812 172.22458984 119.921875 173.41015625 C123.96145973 183.11394131 125.15230936 195.47439142 121.375 205.5 C120.63313024 207.02524272 119.8409359 208.52705637 119 210 C118.56429688 210.78890625 118.12859375 211.5778125 117.6796875 212.390625 C112.87505276 220.31958506 106.30927749 225.39822293 97.4921875 228.3046875 C85.33660389 230.72492674 73.10410728 229.42929342 61.19726562 226.43701172 C52.5522699 224.28745575 44.78970398 224.35125717 36.1640625 226.546875 C31.94168069 227.43098383 27.00638971 228.07145347 23.10546875 225.98828125 C20.32653045 224.68388164 18.17935819 224.8403512 15.125 224.9375 C10.92012616 225.01944638 7.14498978 224.74397252 3 224 C2.01 224.33 1.02 224.66 0 225 C-3.50164845 224.99273517 -6.98980131 224.92558389 -10.48828125 224.78515625 C-15.75704352 224.6829404 -19.12736613 225.83686277 -24 228 C-31.63861513 228.83419566 -39.07744169 228.70527736 -46.16796875 225.55859375 C-48.51952641 224.84159429 -49.69900192 225.18236379 -52 226 C-52.53971436 226.33854004 -53.07942871 226.67708008 -53.63549805 227.02587891 C-56.99649775 228.41053444 -60.26544512 228.30525388 -63.84375 228.30078125 C-64.60868774 228.30506638 -65.37362549 228.3093515 -66.16174316 228.31376648 C-67.78229791 228.31950356 -69.40287841 228.32001461 -71.0234375 228.31567383 C-73.4640099 228.31254612 -75.90333025 228.33586588 -78.34375 228.36132812 C-90.97254279 228.4136839 -103.06729975 227.7305282 -113 219 C-116.55562707 215.23384238 -118.87368261 211.86259629 -120.0625 206.8125 C-121.07177748 203.71214463 -121.78020699 203.11192296 -124.75390625 201.59765625 C-127.04061622 200.76829331 -129.33817553 199.96836403 -131.64453125 199.1953125 C-143.94087277 194.81500923 -151.33327211 185.20448579 -156.87109375 173.796875 C-161.23036695 162.99673793 -160.14117716 148.66985485 -156.2578125 137.90234375 C-152.89448721 130.14162733 -149.02330759 122.70187358 -141 119 C-137.04363037 118.87028296 -135.10353257 119.07445655 -132.0625 121.625 C-130.1251377 125.95557456 -130.61442938 129.76195685 -132 134.2109375 C-133.10058497 138.38112274 -133.34591132 142.02810328 -133.3125 146.3125 C-133.30758545 147.06015625 -133.3026709 147.8078125 -133.29760742 148.578125 C-133.10671477 157.6156682 -130.78434268 166.80644069 -125 174 C-122.92457658 174.7950782 -122.92457658 174.7950782 -121 175 C-119.82009968 171.46029903 -119.86781105 168.27272521 -119.88647461 164.59106445 C-119.88632858 163.83960144 -119.88618256 163.08813843 -119.8860321 162.31390381 C-119.88672871 159.83033358 -119.89450933 157.34683837 -119.90234375 154.86328125 C-119.90420882 153.14121034 -119.90563231 151.41913889 -119.90663147 149.69706726 C-119.9104496 145.16460709 -119.92027389 140.63217896 -119.93133545 136.09973145 C-119.94156469 131.47469516 -119.94613234 126.84965371 -119.95117188 122.22460938 C-119.96189677 113.1497255 -119.97896477 104.07486542 -120 95 C-120.90878906 95.73283203 -120.90878906 95.73283203 -121.8359375 96.48046875 C-124.46990054 98.32994821 -125.84480286 98.41515752 -129 98 C-131 96 -131 96 -131.3515625 93.60546875 C-130.66493622 88.51680506 -125.85300144 85.98279976 -122 83 C-118.6475557 80.5365558 -115.26343386 78.12776307 -111.85546875 75.7421875 C-106.85150111 72.22053953 -101.99913501 68.49489211 -97.15405273 64.75878906 C-92.21708965 61 -92.21708965 61 -90 61 C-90 60.34 -90 59.68 -90 59 C-88.1158157 57.51823255 -86.22802225 56.16013387 -84.25 54.8125 C-78.17695068 50.57802235 -72.22259052 46.20897272 -66.3125 41.75 C-58.87047571 36.14439297 -51.39346018 30.59020961 -43.88427734 25.07495117 C-38.70985021 21.27073486 -33.56612109 17.42818442 -28.4375 13.5625 C-8.72250507 -1.28081719 -8.72250507 -1.28081719 0 0 Z M-12.0625 13.1875 C-13.33326672 14.11597659 -14.6041034 15.04435745 -15.875 15.97265625 C-16.54789062 16.46781738 -17.22078125 16.96297852 -17.9140625 17.47314453 C-19.99465432 18.99608709 -22.08828584 20.49894587 -24.1875 21.99609375 C-33.28976462 28.49741761 -42.23346464 35.18294209 -51.11157227 41.98681641 C-56.86219319 46.38865629 -62.65689027 50.72182323 -68.5 55 C-76.25250894 60.67700839 -83.91222523 66.46796556 -91.53320312 72.3203125 C-92.34724609 72.94421875 -93.16128906 73.568125 -94 74.2109375 C-94.75766159 74.8079245 -95.51532318 75.4049115 -96.29594421 76.01998901 C-99 78 -99 78 -101.84907532 79.5696106 C-106.36386876 82.21446246 -109.45632353 84.18874361 -111.00253296 89.3399353 C-111.37027391 93.48514633 -111.39650273 97.50219679 -111.29296875 101.65625 C-111.29489313 103.16940651 -111.30166942 104.68256389 -111.31306458 106.19567871 C-111.32998178 110.15564095 -111.28150681 114.11213689 -111.21887207 118.0715332 C-111.16656455 122.12058277 -111.17682341 126.16943675 -111.18164062 130.21875 C-111.18193916 138.14695834 -111.11308038 146.07260149 -111 154 C-110.34 154 -109.68 154 -109 154 C-106.95543941 151.82735345 -106.95543941 151.82735345 -104.875 149.125 C-104.15054688 148.22007812 -103.42609375 147.31515625 -102.6796875 146.3828125 C-100.80794766 144.21344189 -100.80794766 144.21344189 -101 142 C-100.01 141.67 -99.02 141.34 -98 141 C-98 140.34 -98 139.68 -98 139 C-97.43667969 138.77054688 -96.87335938 138.54109375 -96.29296875 138.3046875 C-93.38607752 136.65068125 -91.54402871 134.61103363 -89.3125 132.125 C-88.52488281 131.26132813 -87.73726562 130.39765625 -86.92578125 129.5078125 C-85.14376787 127.18721902 -84.39103185 125.84989312 -84 123 C-85.4562545 122.32880451 -86.91507867 121.66318193 -88.375 121 C-89.18710938 120.62875 -89.99921875 120.2575 -90.8359375 119.875 C-92.91998433 118.87504987 -92.91998433 118.87504987 -95 119 C-95.33 118.01 -95.66 117.02 -96 116 C-96.66 116 -97.32 116 -98 116 C-98.4640625 114.824375 -98.4640625 114.824375 -98.9375 113.625 C-99.92875038 111.07669872 -99.92875038 111.07669872 -101 109 C-101.79075047 102.59702053 -100.58211559 99.5583902 -96.7331543 94.45458984 C-96.14058838 93.7064502 -95.54802246 92.95831055 -94.9375 92.1875 C-93.73186219 90.60216826 -92.52872085 89.01493476 -91.328125 87.42578125 C-90.74869141 86.66604004 -90.16925781 85.90629883 -89.57226562 85.12353516 C-87.6074732 82.46984501 -85.88275105 79.70701986 -84.1875 76.875 C-79.60748851 69.52436427 -74.44886455 63.66806249 -66 61 C-64.56444425 60.69890966 -63.12676983 60.4078039 -61.6875 60.125 C-58.10482327 59.40846465 -55.28088511 58.22521584 -52.0625 56.5 C-41.0492476 50.72953236 -30.0504566 50.99402514 -18.3515625 54.2890625 C-15.10027685 54.97872915 -12.16429276 55.18199321 -8.85986328 55.26147461 C-2.61214131 55.41257087 2.47217939 55.58727089 7.2734375 60.0078125 C12.83258159 66.42220952 17.36618348 73.38592698 21.6171875 80.71484375 C22.91113028 82.85313902 24.30654894 84.82034188 25.8125 86.8125 C29 91.45714286 29 91.45714286 29 95 C27.24260537 99.68638569 24.65898271 102.63769156 21 106 C22.48625805 110.01289672 25.1059351 113.18841328 29 115 C32.59052273 114.36921933 32.59052273 114.36921933 35.11328125 113.515625 C38.38957247 112.93041466 40.9752481 113.2796227 44.24560547 113.71533203 C51.43306188 114.73858279 51.43306188 114.73858279 57.88671875 112.0234375 C60.12255786 109.44975512 62.06934778 106.80706672 64 104 C66.74934647 101.10151445 69.2927397 99.2404685 73.125 97.9375 C76 98 76 98 78.1875 99.5 C82.99356986 106.12906188 83.96285813 113.00508166 84.17578125 120.99609375 C84.19962891 121.88490234 84.22347656 122.77371094 84.24804688 123.68945312 C84.29091848 125.51734251 84.32222206 127.34554084 84.34179688 129.17382812 C84.52877427 135.17884617 85.35360281 140.08392206 89 145 C91.40861298 146.9532097 91.40861298 146.9532097 94.125 148 C95.42824219 148.5878125 95.42824219 148.5878125 96.7578125 149.1875 C98.91591501 150.11356358 98.91591501 150.11356358 101 150 C101.25587159 141.94170631 101.45080189 133.88513214 101.56993389 125.82376957 C101.62714081 122.07953135 101.70458731 118.33808815 101.82983398 114.59545898 C101.95015008 110.97715197 102.0152786 107.36151563 102.04364967 103.74136162 C102.06383968 102.3667845 102.1032746 100.9923397 102.16303062 99.61891365 C102.51606378 91.29061021 102.51606378 91.29061021 98.6497345 84.2219696 C95.86389901 81.92113128 93.04234288 79.94407433 90 78 C88.36128397 76.76683538 86.73055529 75.52287294 85.11328125 74.26171875 C83.51486963 73.06783327 81.91457534 71.87646462 80.3125 70.6875 C78.56378121 69.38284047 76.81508356 68.07815262 75.06640625 66.7734375 C74.21062988 66.13631836 73.35485352 65.49919922 72.47314453 64.84277344 C68.89228781 62.17462867 65.32108139 59.49370459 61.75 56.8125 C60.44925825 55.83718691 59.14847729 54.86192609 57.84765625 53.88671875 C55.27048766 51.95400571 52.69515611 50.01887908 50.12109375 48.08203125 C42.05024198 42.01281503 33.94239142 35.99651004 25.80566406 30.01586914 C21.32947666 26.72393362 16.8723088 23.40995516 12.4375 20.0625 C8.79018464 17.32701348 5.135245 14.60455171 1.4375 11.9375 C0.65246094 11.36902344 -0.13257813 10.80054688 -0.94140625 10.21484375 C-5.57506629 7.48036885 -8.32942838 10.40722949 -12.0625 13.1875 Z M-53 64 C-53.53077609 66.79869247 -53.53077609 66.79869247 -53.1875 69.875 C-52.6371358 84.78486649 -55.53110561 99.52600378 -63.828125 112.07421875 C-65.173279 113.90903642 -65.173279 113.90903642 -65 116 C-65.66 116 -66.32 116 -67 116 C-67.5775 116.5775 -68.155 117.155 -68.75 117.75 C-71 120 -71 120 -73.8125 121.625 C-77.62014208 124.46206665 -79.65403279 127.59757067 -82.25390625 131.5234375 C-83.84190245 133.77576321 -85.45101837 135.60232579 -87.4375 137.5 C-88.283125 138.325 -89.12875 139.15 -90 140 C-90 140.66 -90 141.32 -90 142 C-90.55171875 142.21011719 -91.1034375 142.42023438 -91.671875 142.63671875 C-94.83103637 144.48663036 -96.93791659 147.03264936 -99.25 149.8125 C-99.97026367 150.67222412 -99.97026367 150.67222412 -100.70507812 151.54931641 C-112.40415884 165.83045122 -118.26382938 179.51532514 -117 198 C-115.91373853 205.04228837 -113.13442118 210.99307009 -108 216 C-99.04958602 222.22637494 -88.99788018 222.27496972 -78.5 222.125 C-76.69402344 222.11146484 -76.69402344 222.11146484 -74.8515625 222.09765625 C-71.9008321 222.07423775 -68.95052311 222.04143993 -66 222 C-65.30840599 220.15274948 -65.30840599 220.15274948 -65 218 C-65.66 217.01 -66.32 216.02 -67 215 C-65.35 215.33 -63.7 215.66 -62 216 C-61.34 217.98 -60.68 219.96 -60 222 C-58.68 221.67 -57.36 221.34 -56 221 C-54.89352513 218.28410714 -54.91694848 217.21281952 -56 214.4375 C-58.65314218 211.20398297 -60.96694579 209.81047022 -65 209 C-70.01513234 208.76241392 -74.98410417 208.82570246 -80 209 C-80 208.01 -80 207.02 -80 206 C-77.16730334 204.58365167 -74.52533562 204.6536995 -71.375 204.4375 C-70.18648437 204.35371094 -68.99796875 204.26992187 -67.7734375 204.18359375 C-66.85820313 204.12300781 -65.94296875 204.06242188 -65 204 C-61.04759814 196.85391628 -59.43502701 189.9896808 -61.54296875 181.921875 C-63.86727989 176.01478592 -67.3372861 171.83135695 -73 169 C-76.72529213 167.74399554 -80.34740747 167.90136488 -84.25 167.9375 C-86.14492187 167.95103516 -86.14492187 167.95103516 -88.078125 167.96484375 C-89.04234375 167.97644531 -90.0065625 167.98804688 -91 168 C-87.51819392 164.09473101 -85.45028429 163.29735857 -80.36328125 162.97265625 C-72.77539336 163.06044999 -67.52213148 165.87055342 -62 171 C-56.22691174 177.98847526 -55.77690461 185.24602347 -56.1875 193.875 C-56.36898916 201.38911282 -55.45420673 206.72827213 -51 213 C-50.34 213.969375 -49.68 214.93875 -49 215.9375 C-43.90429809 221.1924426 -39.0349767 221.60385568 -32 222 C-31.34 221.01 -30.68 220.02 -30 219 C-30.80161791 216.32854463 -30.80161791 216.32854463 -32 214 C-29.5625 214.6875 -29.5625 214.6875 -27 216 C-26.1875 218.625 -26.1875 218.625 -26 221 C-24.35 220.67 -22.7 220.34 -21 220 C-21.178149 215.45720041 -21.43645778 213.55073444 -24.75 210.3125 C-26.67750119 208.94100877 -28.61329812 207.58086628 -30.56640625 206.24609375 C-38.09147281 199.30080759 -38.0347599 183.77940632 -39 174 C-37.02 174.495 -37.02 174.495 -35 175 C-34.86722656 175.97582031 -34.73445313 176.95164062 -34.59765625 177.95703125 C-34.33275391 179.86548828 -34.33275391 179.86548828 -34.0625 181.8125 C-33.80146484 183.70935547 -33.80146484 183.70935547 -33.53515625 185.64453125 C-33.09607545 188.98321703 -33.09607545 188.98321703 -32 192 C-27.49279228 190.49759743 -25.14541833 187.04824518 -23 183 C-22.080589 180.02959522 -21.4667435 177.07214749 -21 174 C-19.515 174.495 -19.515 174.495 -18 175 C-18.24571526 182.74003055 -20.4230011 188.4230011 -26 194 C-26.65111942 197.12805822 -26.71914808 199.88201532 -26 203 C-24.16057605 205.19557666 -22.24205671 206.78815147 -19.9453125 208.4921875 C-16.31316539 211.30746618 -15.32030233 214.75617107 -14 219 C-11.69 219 -9.38 219 -7 219 C-7.33 216.36 -7.66 213.72 -8 211 C-7.01 211.33 -6.02 211.66 -5 212 C-3.8125 215.5625 -3.8125 215.5625 -3 219 C-1.68 218.67 -0.36 218.34 1 218 C1.89724685 216.35669053 1.89724685 216.35669053 2 214 C0.00338003 209.67399006 -2.19805287 206.77337433 -5.5625 203.4375 C-15.62281911 192.17338202 -14.01831173 167.90467717 -14.75390625 153.41796875 C-14.98400368 150.22217115 -15.41660195 147.14842086 -16 144 C-16.71542969 143.98582031 -17.43085938 143.97164063 -18.16796875 143.95703125 C-29.13654803 143.43201517 -41.99663958 140.08106295 -50 132 C-50.734375 129.3125 -50.734375 129.3125 -51 127 C-47.16480353 128.82999222 -43.50908564 130.65000362 -40 133.0625 C-33.43360037 137.30329976 -27.53535253 138.5085488 -19.875 138.4375 C-19.10285156 138.45748047 -18.33070313 138.47746094 -17.53515625 138.49804688 C-12.12825499 138.49344134 -9.13166196 137.54425315 -5 134 C-5 133.34 -5 132.68 -5 132 C-7.52749667 131.06389012 -8.61301641 130.82927195 -11.125 131.9375 C-16.53121556 133.93544923 -22.5474512 133.84422278 -27.9375 131.75 C-31.72187094 129.58750232 -33.41741593 127.90663878 -34.6875 123.75 C-34.790625 123.1725 -34.89375 122.595 -35 122 C-33.35 122 -31.7 122 -30 122 C-29.773125 122.598125 -29.54625 123.19625 -29.3125 123.8125 C-27.55823799 126.73627001 -26.13150836 127.63847463 -23 129 C-18.9896325 129.60074331 -15.88238477 129.36446327 -12.125 127.8125 C-9.67530825 125.72305703 -8.90873575 124.05665662 -8 121 C-9.28965176 119.62437146 -10.62689293 118.29233607 -12 117 C-12.66 117 -13.32 117 -14 117 C-14.9765625 110.9453125 -14.9765625 110.9453125 -15 109 C-11.49729599 105.49729599 -7.41988475 105.94419361 -2.6875 105.9375 C-1.1249427 105.95346774 0.43759968 105.97269592 2 106 C3.12025654 109.92089789 3.28708255 111.46836565 1.3125 115.125 C-1 118 -1 118 -3.3125 120.0625 C-3.869375 120.701875 -4.42625 121.34125 -5 122 C-4.85974801 124.70705512 -4.85974801 124.70705512 -4 127 C-0.42412232 127.99791935 1.32679357 128.3444312 4.6875 126.625 C7.7759625 123.1191777 9.32122977 119.62671952 10 115 C9.61187061 109.1295429 8.2134595 104.21805865 6.125 98.75 C4.25578082 93.70073794 2.6059185 88.76801404 1.4375 83.5 C-0.10246961 76.83596486 -3.24249498 71.63625753 -7 66 C-7.66 66 -8.32 66 -9 66 C-9 65.34 -9 64.68 -9 64 C-20.61363944 54.36315025 -41.8721287 52.91050067 -53 64 Z M-4 61 C-2.54625248 64.03965391 -0.86337025 66.84185006 0.9375 69.6875 C5.82022916 77.82144107 7.73874632 86.61188297 10.03515625 95.7421875 C10.85652915 99.10501268 10.85652915 99.10501268 13 102 C15.37014192 102.66840854 15.37014192 102.66840854 18 102 C20.93714781 99.97958785 20.93714781 99.97958785 23 97 C23.4368022 93.48659103 23.42199641 91.65984894 21.49609375 88.6484375 C20.81675781 87.89820312 20.13742188 87.14796875 19.4375 86.375 C16.27847594 82.68761804 13.78005913 79.06637442 11.4375 74.8125 C8.14529662 68.99302432 4.69978263 63.18078169 -1.9375 61.0625 C-2.618125 61.041875 -3.29875 61.02125 -4 61 Z M-67.05078125 65.88671875 C-75.48474903 70.70371438 -79.99543854 78.22459103 -84.92724609 86.28271484 C-87.90487909 91.0493672 -91.16563341 95.6973759 -94.66796875 100.09375 C-96.62356407 102.89237321 -96.46843847 104.65401096 -96 108 C-93.71378069 112.7629569 -90.95444528 115.27366909 -86.2109375 117.36328125 C-81.5251347 118.71272623 -77.40824602 118.25327089 -73.0859375 116.00390625 C-64.05293622 109.29879296 -60.35670482 96.49047045 -58.65576172 85.84570312 C-58.30233207 83.44178502 -57.98643105 81.03628038 -57.6875 78.625 C-57.53619629 77.46460205 -57.53619629 77.46460205 -57.38183594 76.28076172 C-56.91739372 72.03324333 -56.68963006 68.79927502 -59 65 C-62.47456638 63.84181121 -63.81646037 64.3475346 -67.05078125 65.88671875 Z M69.08984375 106.484375 C68.02868323 107.56280096 66.97821091 108.65182652 65.9375 109.75 C65.14375977 110.55824219 65.14375977 110.55824219 64.33398438 111.3828125 C61.6734087 114.12016765 59.19763065 116.86704558 57 120 C55.7625 119.67 54.525 119.34 53.25 119 C45.63247013 117.32581761 38.2460911 117.26121549 30.75 119.4375 C27.5808594 120.19278633 26.53272401 120.32308305 23.70703125 118.609375 C21.5625 116.6875 21.5625 116.6875 19.69140625 114.69921875 C18.0072661 112.75282576 18.0072661 112.75282576 15 112 C16.26082419 115.64496845 16.26082419 115.64496845 18.6875 118.5625 C20 120 20 120 20.0625 121.875 C18.11511283 125.76977434 14.71677684 128.41268161 10.625 129.8125 C10.08875 129.874375 9.5525 129.93625 9 130 C9.0825 130.639375 9.165 131.27875 9.25 131.9375 C8.99974735 135.00309498 8.37099304 136.58214269 7.0625 139.3125 C5.0150009 143.62454758 4.34509923 147.25488561 4 152 C8.455 153.98 8.455 153.98 13 156 C13 156.66 13 157.32 13 158 C9.04 157.505 9.04 157.505 5 157 C5 158.32 5 159.64 5 161 C7.64 161 10.28 161 13 161 C13 162.32 13 163.64 13 165 C10.03 165.495 10.03 165.495 7 166 C10.3181584 173.06912007 15.19188457 177.83318482 22.375 181.0703125 C36.38903594 185.94681825 52.87134409 185.57548654 66.59375 179.93359375 C74.50888964 175.93644823 79.29162199 170.11082731 82.30859375 161.8046875 C84.03490217 154.80192227 83.75160498 148.10194667 81.5078125 141.2890625 C79.77094139 135.79026411 79.52101469 130.60967521 79.4375 124.875 C79.29841494 114.13332418 79.29841494 114.13332418 76 104 C71.86930601 103.56714881 71.86930601 103.56714881 69.08984375 106.484375 Z M-141 126 C-149.25035341 133.86993365 -153.10462777 142.82686053 -153.5402832 154.1875 C-153.61070109 162.11144735 -153.09667476 169.01735162 -149 176 C-148.360625 177.093125 -147.72125 178.18625 -147.0625 179.3125 C-140.63016139 187.69403213 -133.21011106 193.30566514 -123 196 C-121.94713275 188.21696195 -121.94713275 188.21696195 -124.34765625 181.15234375 C-125.56032274 180.23817978 -126.79779961 179.35624925 -128.0546875 178.50390625 C-134.23791177 173.72370275 -137.88956463 164.55842566 -139 157 C-139.66958348 146.90100162 -139.61894898 136.82105868 -137 127 C-138.32 126.67 -139.64 126.34 -141 126 Z M0.4375 135.375 C-1.22085796 136.88807063 -1.22085796 136.88807063 -1 139 C-3.93823196 140.52352768 -6.92254092 141.78534783 -10 143 C-9.61162102 154.62458464 -8.80153057 166.17761795 -7.625 177.75 C-7.4542395 179.53325684 -7.4542395 179.53325684 -7.2800293 181.35253906 C-6.60389818 187.71601994 -5.58564941 193.13534268 -3 199 C-1.0264586 198.66932045 -1.0264586 198.66932045 1 198 C2.18930049 195.72919005 2.18930049 195.72919005 2.9375 192.9375 C4.6432412 187.73193123 6.87044631 183.47628786 10 179 C9.59007812 178.46890625 9.18015625 177.9378125 8.7578125 177.390625 C8.21898437 176.68421875 7.68015625 175.9778125 7.125 175.25 C6.59132812 174.55390625 6.05765625 173.8578125 5.5078125 173.140625 C4.10761086 171.15277397 3.02144735 169.20156614 2 167 C0.02 167 -1.96 167 -4 167 C-3.67 166.01 -3.34 165.02 -3 164 C-2.34 163.67 -1.68 163.34 -1 163 C-0.66619186 159.62563814 -0.66619186 159.62563814 -1 156 C-2.86124923 154.01760473 -2.86124923 154.01760473 -5 153 C-4.04480469 152.63261719 -4.04480469 152.63261719 -3.0703125 152.2578125 C-0.8616559 151.19890492 -0.8616559 151.19890492 -0.2421875 149.1171875 C-0.12101563 148.37726563 0.00015625 147.63734375 0.125 146.875 C0.269375 146.07964844 0.41375 145.28429687 0.5625 144.46484375 C0.706875 143.65144531 0.85125 142.83804688 1 142 C1.36156193 140.47591601 1.73555842 138.95469949 2.125 137.4375 C2.41375 136.303125 2.7025 135.16875 3 134 C1.77822672 133.88989535 1.77822672 133.88989535 0.4375 135.375 Z M88 151 C87.87044922 152.485 87.87044922 152.485 87.73828125 154 C86.66325595 164.65313656 84.33051119 171.83188572 76 179 C64.45765297 187.66970012 49.08803072 189.62084105 35.01171875 187.73339844 C29.0974949 186.76371451 23.3552065 185.78082152 18 183 C15.44539786 182.92727438 15.44539786 182.92727438 13 184 C10.46214117 186.68287933 8.20820239 189.48522942 7 193 C7.29153947 194.67448309 7.62119667 196.34307607 8 198 C8.90363281 198.10957031 9.80726563 198.21914062 10.73828125 198.33203125 C11.91777344 198.49058594 13.09726563 198.64914063 14.3125 198.8125 C15.48425781 198.96332031 16.65601563 199.11414063 17.86328125 199.26953125 C21.09170037 200.02135488 21.91248401 200.59337329 24 203 C26.81686778 202.77160532 29.13533322 201.95154503 31.79296875 201 C41.02513188 198.12127435 49.54892689 198.96469552 58.80859375 201.23046875 C62.54333629 202.13101255 66.18273645 202.61827364 70 203 C70.09796875 202.41992188 70.1959375 201.83984375 70.296875 201.2421875 C71.60791402 194.39313883 73.68527918 189.570671 79.375 185.25 C84.82142891 181.6460864 89.47392293 180.73895692 96 181 C96 182.32 96 183.64 96 185 C95.02160156 185.14695312 95.02160156 185.14695312 94.0234375 185.296875 C87.15196396 186.47252534 82.82415904 188.32849821 77.6875 193.1875 C75.38421144 197.02631426 75.19217005 200.58969737 75 205 C83.47658183 208.99178619 93.51001128 207.73151915 102.109375 204.65625 C104 204 104 204 106 204 C105.75 205.890625 105.75 205.890625 105 208 C96.78561505 213.09596104 83.16995356 212.25275018 73.9921875 210.203125 C70.29791235 209.21697352 66.6501456 208.13786662 63 207 C51.9057272 203.7782124 41.8448014 202.04177368 31 207 C25.73369021 209.91008345 25.73369021 209.91008345 23 215 C23.35172998 217.98970481 23.82711465 218.82711465 26 221 C30.14887494 221.34573958 33.63659717 220.91324702 37.6875 220 C46.72850778 218.12944667 54.572366 218.77647847 63.4375 221 C76.39234231 224.1493047 91.66646592 226.12851502 103.546875 218.8984375 C110.39052488 213.60223712 115.68260143 207.7531001 117 199 C118.17825219 186.42751359 116.39648004 175.8351702 108.9375 165.25 C103.77648391 159.12483804 96.19801625 151.96093963 88 151 Z M5 204 C5.144375 204.825 5.28875 205.65 5.4375 206.5 C5.85817679 209.11754447 6.1718637 211.67985457 6.4375 214.3125 C6.623125 215.529375 6.80875 216.74625 7 218 C7.66 218.33 8.32 218.66 9 219 C9.4021875 217.7934375 9.4021875 217.7934375 9.8125 216.5625 C10.204375 215.716875 10.59625 214.87125 11 214 C11.99 213.67 12.98 213.34 14 213 C13.67 214.98 13.34 216.96 13 219 C14.32 219.33 15.64 219.66 17 220 C18.21123073 217.85312994 18.21123073 217.85312994 18.4375 214.5625 C19 211 19 211 21 208 C21.07642709 205.88850355 21.07642709 205.88850355 20 204 C15.03821607 201.1646949 9.89043726 200.99050015 5 204 Z " fill="#000000" transform="translate(164,24)"/>
<path d="M0 0 C3 0.4375 3 0.4375 4.8125 1.75 C6 3.4375 6 3.4375 7 6.4375 C4 7.4375 4 7.4375 1.5625 6.875 C-1.41385129 6.36684246 -2.49473271 6.86010948 -5 8.4375 C-5.6875 6.6875 -5.6875 6.6875 -6 4.4375 C-4.44829329 1.15153286 -3.63170314 0.52962338 0 0 Z " fill="#000000" transform="translate(158,111.5625)"/>
<path d="M0 0 C2 2 2 2 2 6 C-1.3 5.67 -4.6 5.34 -8 5 C-8 5.99 -8 6.98 -8 8 C-9.32 8 -10.64 8 -12 8 C-12.36585366 3.48780488 -12.36585366 3.48780488 -10.6875 1.25 C-7.02593544 -1.46227005 -4.23604356 -0.99141445 0 0 Z " fill="#000000" transform="translate(133,116)"/>
<path d="M0 0 C1.32 0.66 2.64 1.32 4 2 C4 6.62 4 11.24 4 16 C-1.07693209 14.3076893 -3.20559694 13.3480027 -7 10 C-5.6062718 5.56541027 -3.39417765 3.12621626 0 0 Z " fill="#000000" transform="translate(234,137)"/>
<path d="M0 0 C3 0.875 3 0.875 4.9375 2.75 C5.288125 3.45125 5.63875 4.1525 6 4.875 C5.67 5.865 5.34 6.855 5 7.875 C4.01 7.875 3.02 7.875 2 7.875 C1.67 7.215 1.34 6.555 1 5.875 C-1.64 6.205 -4.28 6.535 -7 6.875 C-6.6875 4.5 -6.6875 4.5 -6 1.875 C-3 -0.125 -3 -0.125 0 0 Z " fill="#000000" transform="translate(184,167.125)"/>
<path d="M0 0 C1.9375 2.5625 1.9375 2.5625 3 5 C2.01 5.66 1.02 6.32 0 7 C-0.66 6.34 -1.32 5.68 -2 5 C-5.61754103 4.61920621 -7.88401212 5.15348866 -11 7 C-11.6875 5.1875 -11.6875 5.1875 -12 3 C-8.50604279 -1.4922307 -5.34534176 -1.31289096 0 0 Z " fill="#000000" transform="translate(220,170)"/>
<path d="M0 0 C1.06351675 3.38391693 1.21442982 4.5804634 -0.4375 7.8125 C-0.953125 8.534375 -1.46875 9.25625 -2 10 C2.41062136 11.0257259 4.92630576 11.03684712 9 9 C9.33 9.99 9.66 10.98 10 12 C8.4375 14 8.4375 14 6 16 C2.34973917 16.39821027 -0.15933417 16.34856876 -3.5625 14.9375 C-6.05626348 13.73507527 -6.05626348 13.73507527 -9.0625 14.5625 C-12 15 -12 15 -14.375 13.875 C-16 12 -16 12 -16.25 9.3125 C-16.1675 8.549375 -16.085 7.78625 -16 7 C-15.01 7 -14.02 7 -13 7 C-12.67 7.66 -12.34 8.32 -12 9 C-10.68 9 -9.36 9 -8 9 C-8.2165625 8.13375 -8.2165625 8.13375 -8.4375 7.25 C-8.95833333 5.16666667 -9.47916667 3.08333333 -10 1 C-6.1496895 -1.56687367 -4.41430237 -0.83288724 0 0 Z " fill="#000000" transform="translate(201,180)"/>
<path d="M0 0 C-0.33 0.99 -0.66 1.98 -1 3 C-3.72827365 3.50534727 -6.45744694 4.00443845 -9.1875 4.5 C-9.95642578 4.64308594 -10.72535156 4.78617188 -11.51757812 4.93359375 C-15.39421773 5.63238715 -19.041471 6.19039017 -23 6 C-22.4375 4.125 -22.4375 4.125 -21 2 C-14.4024798 -0.99887282 -7.10311295 -0.17733153 0 0 Z " fill="#000000" transform="translate(246,179)"/>
<path d="M0 0 C1.0725 0.27585938 2.145 0.55171875 3.25 0.8359375 C6 1.625 6 1.625 8 2.625 C8 3.615 8 4.605 8 5.625 C2.5487185 5.05715818 -1.95293491 3.80045909 -7 1.625 C-7.33 0.965 -7.66 0.305 -8 -0.375 C-5.04142593 -1.85428703 -3.15200625 -0.82588625 0 0 Z " fill="#000000" transform="translate(231,189.375)"/>
</svg>
