<svg width="82" height="73" viewBox="0 0 82 73" fill="none" xmlns="http://www.w3.org/2000/svg">
<path d="M30.3009 42.4516C30.3009 43.0511 30.1231 43.6372 29.79 44.1356C29.4569 44.6341 28.9835 45.0227 28.4296 45.2521C27.8757 45.4815 27.2662 45.5415 26.6782 45.4246C26.0902 45.3076 25.5501 45.0189 25.1262 44.595C24.7023 44.1711 24.4136 43.6309 24.2966 43.0429C24.1796 42.4549 24.2397 41.8455 24.4691 41.2916C24.6985 40.7377 25.0871 40.2643 25.5855 39.9312C26.084 39.5981 26.6701 39.4203 27.2696 39.4203C28.0735 39.4203 28.8446 39.7397 29.413 40.3082C29.9815 40.8766 30.3009 41.6476 30.3009 42.4516ZM54.5509 45.4828C55.1504 45.4828 55.7365 45.305 56.2349 44.972C56.7334 44.6389 57.1219 44.1655 57.3514 43.6116C57.5808 43.0577 57.6408 42.4482 57.5239 41.8602C57.4069 41.2722 57.1182 40.7321 56.6943 40.3082C56.2704 39.8842 55.7302 39.5955 55.1422 39.4786C54.5542 39.3616 53.9447 39.4216 53.3909 39.6511C52.837 39.8805 52.3635 40.269 52.0305 40.7675C51.6974 41.266 51.5196 41.852 51.5196 42.4516C51.5196 43.2555 51.839 44.0265 52.4074 44.595C52.9759 45.1635 53.7469 45.4828 54.5509 45.4828ZM79.157 42.031C78.5628 42.3048 77.9168 42.4482 77.2625 42.4516C76.5775 42.4499 75.9019 42.2912 75.2878 41.9878C74.6737 41.6843 74.1372 41.2441 73.7197 40.701L72.7384 39.4544V59.1235C72.7384 62.7412 71.3012 66.2107 68.7431 68.7688C66.185 71.3269 62.7155 72.7641 59.0977 72.7641H22.7227C19.105 72.7641 15.6355 71.3269 13.0774 68.7688C10.5192 66.2107 9.08211 62.7412 9.08211 59.1235V39.4544L8.12348 40.6934C7.705 41.2379 7.1675 41.6794 6.55212 41.9841C5.93675 42.2888 5.25981 42.4487 4.57313 42.4516C3.91884 42.4482 3.27286 42.3048 2.6786 42.031C1.74387 41.6207 0.977357 40.9034 0.506017 39.998C0.0346764 39.0925 -0.113202 38.0532 0.0868767 37.0522L6.30852 3.70841C6.4228 3.09931 6.66039 2.52 7.0067 2.00606C7.353 1.49212 7.80072 1.0544 8.32234 0.719775C8.84397 0.385154 9.42849 0.160699 10.04 0.0601933C10.6515 -0.0403125 11.2772 -0.0147471 11.8784 0.13532H11.9391L32.0363 6.07657H49.7842L69.8966 0.165633H69.9572C70.5585 0.0155654 71.1841 -0.0100001 71.7956 0.0905057C72.4071 0.191012 72.9917 0.415467 73.5133 0.750087C74.0349 1.08471 74.4826 1.52243 74.8289 2.03637C75.1752 2.55031 75.4128 3.12962 75.5271 3.73872L81.7487 37.0825C81.9421 38.079 81.7908 39.1116 81.3199 40.0108C80.8489 40.91 80.0862 41.6224 79.157 42.031ZM29.2589 8.41821L11.1055 3.08321C10.991 3.05778 10.8741 3.04507 10.7569 3.04532C10.4043 3.04629 10.063 3.17017 9.79192 3.39563C9.52081 3.62109 9.3368 3.93403 9.27156 4.28055L3.04992 37.6243C2.98545 37.9584 3.03529 38.3045 3.19142 38.6069C3.34755 38.9092 3.60088 39.1502 3.91063 39.2911C4.22038 39.432 4.56853 39.4645 4.89902 39.3835C5.22952 39.3025 5.52313 39.1126 5.73258 38.8444L29.2589 8.41821ZM69.7071 35.5365L49.2462 9.10782H32.5743L12.1134 35.5365V59.1235C12.1134 61.9372 13.2311 64.6358 15.2208 66.6254C17.2104 68.6151 19.909 69.7328 22.7227 69.7328H39.3946V62.7837L33.7754 57.1645C33.491 56.8801 33.3313 56.4944 33.3313 56.0922C33.3313 55.69 33.491 55.3043 33.7754 55.0199C34.0598 54.7355 34.4455 54.5757 34.8477 54.5757C35.2499 54.5757 35.6357 54.7355 35.92 55.0199L40.9102 60.0101L45.9004 55.0199C46.1848 54.7355 46.5705 54.5757 46.9727 54.5757C47.3749 54.5757 47.7607 54.7355 48.045 55.0199C48.3294 55.3043 48.4892 55.69 48.4892 56.0922C48.4892 56.4944 48.3294 56.8801 48.045 57.1645L42.4259 62.7837V69.7328H59.0977C61.9115 69.7328 64.6101 68.6151 66.5997 66.6254C68.5893 64.6358 69.7071 61.9372 69.7071 59.1235V35.5365ZM78.7705 37.6129L72.5489 4.26919C72.5113 4.06802 72.4333 3.87655 72.3196 3.70634C72.206 3.53612 72.0591 3.39069 71.8877 3.2788C71.7163 3.16691 71.5241 3.09089 71.3225 3.05532C71.121 3.01976 70.9143 3.02537 70.715 3.07184L52.5616 8.41821L76.0955 38.8368C76.3063 39.1015 76.5996 39.2879 76.9287 39.3666C77.2578 39.4452 77.6038 39.4114 77.9115 39.2707C78.2192 39.1299 78.4709 38.8902 78.6266 38.5898C78.7823 38.2894 78.8329 37.9455 78.7705 37.6129Z" fill="black"/>
</svg>
