<svg width="30" height="28" viewBox="0 0 30 28" fill="none" xmlns="http://www.w3.org/2000/svg">
<path d="M28.0006 19.9999C28.0006 20.7072 27.7197 21.3854 27.2196 21.8855C26.7195 22.3856 26.0412 22.6666 25.334 22.6666H7.77132C7.06413 22.6667 6.38596 22.9478 5.88598 23.4479L2.94998 26.3839C2.81759 26.5163 2.64892 26.6064 2.4653 26.6429C2.28168 26.6795 2.09136 26.6607 1.91839 26.5891C1.74543 26.5174 1.59759 26.3961 1.49357 26.2405C1.38954 26.0848 1.33401 25.9018 1.33398 25.7146V3.99992C1.33398 3.29267 1.61494 2.6144 2.11503 2.1143C2.61513 1.6142 3.29341 1.33325 4.00065 1.33325H25.334C26.0412 1.33325 26.7195 1.6142 27.2196 2.1143C27.7197 2.6144 28.0006 3.29267 28.0006 3.99992V19.9999Z" stroke="#8B4513" stroke-width="2.66667" stroke-linecap="round" stroke-linejoin="round"/>
</svg>
