<svg width="20" height="20" viewBox="0 0 20 20" fill="none" xmlns="http://www.w3.org/2000/svg">
<g clip-path="url(#clip0_1_17590)">
<path d="M16.6666 8.33366C16.6666 12.4945 12.0508 16.8278 10.5008 18.1662C10.3564 18.2747 10.1806 18.3335 9.99992 18.3335C9.81925 18.3335 9.64348 18.2747 9.49909 18.1662C7.94909 16.8278 3.33325 12.4945 3.33325 8.33366C3.33325 6.56555 4.03563 4.86986 5.28587 3.61961C6.53612 2.36937 8.23181 1.66699 9.99992 1.66699C11.768 1.66699 13.4637 2.36937 14.714 3.61961C15.9642 4.86986 16.6666 6.56555 16.6666 8.33366Z" stroke="#8B7355" stroke-width="1.66667" stroke-linecap="round" stroke-linejoin="round"/>
<path d="M10 10.833C11.3807 10.833 12.5 9.71372 12.5 8.33301C12.5 6.9523 11.3807 5.83301 10 5.83301C8.61929 5.83301 7.5 6.9523 7.5 8.33301C7.5 9.71372 8.61929 10.833 10 10.833Z" stroke="#8B7355" stroke-width="1.66667" stroke-linecap="round" stroke-linejoin="round"/>
</g>
<defs>
<clipPath id="clip0_1_17590">
<rect width="20" height="20" fill="white"/>
</clipPath>
</defs>
</svg>
