<svg width="16" height="16" viewBox="0 0 16 16" fill="none" xmlns="http://www.w3.org/2000/svg">
<g clip-path="url(#clip0_551_5223)">
<path d="M9.22198 11.0454C9.35967 11.1086 9.51478 11.1231 9.66178 11.0863C9.80877 11.0496 9.93887 10.9639 10.0307 10.8434L10.2673 10.5334C10.3915 10.3678 10.5526 10.2334 10.7377 10.1408C10.9228 10.0482 11.127 10 11.334 10H13.334C13.6876 10 14.0267 10.1405 14.2768 10.3906C14.5268 10.6406 14.6673 10.9798 14.6673 11.3334V13.3334C14.6673 13.687 14.5268 14.0261 14.2768 14.2762C14.0267 14.5262 13.6876 14.6667 13.334 14.6667C10.1514 14.6667 7.09914 13.4024 4.8487 11.152C2.59827 8.90155 1.33398 5.8493 1.33398 2.66671C1.33398 2.31309 1.47446 1.97395 1.72451 1.7239C1.97456 1.47385 2.3137 1.33337 2.66732 1.33337H4.66732C5.02094 1.33337 5.36008 1.47385 5.61013 1.7239C5.86017 1.97395 6.00065 2.31309 6.00065 2.66671V4.66671C6.00065 4.8737 5.95246 5.07785 5.85989 5.26299C5.76732 5.44813 5.63291 5.60918 5.46732 5.73337L5.15532 5.96737C5.03293 6.06083 4.94666 6.19376 4.91118 6.34361C4.87569 6.49345 4.89317 6.65096 4.96065 6.78937C5.87177 8.63995 7.37027 10.1366 9.22198 11.0454Z" stroke="#99A1AF" stroke-width="1.33333" stroke-linecap="round" stroke-linejoin="round"/>
</g>
<defs>
<clipPath id="clip0_551_5223">
<path d="M0 0H16V16H0V0Z" fill="white"/>
</clipPath>
</defs>
</svg>
