<svg width="32" height="32" viewBox="0 0 32 32" fill="none" xmlns="http://www.w3.org/2000/svg">
<path d="M2.66602 12.6666C2.66604 11.1829 3.11614 9.73408 3.95686 8.51152C4.79758 7.28896 5.98937 6.35018 7.37483 5.81917C8.76028 5.28816 10.2742 5.1899 11.7167 5.53736C13.1592 5.88483 14.4623 6.66168 15.454 7.76531C15.5239 7.83999 15.6083 7.89953 15.7021 7.94024C15.7959 7.98095 15.8971 8.00195 15.9993 8.00195C16.1016 8.00195 16.2028 7.98095 16.2966 7.94024C16.3904 7.89953 16.4748 7.83999 16.5447 7.76531C17.5333 6.65451 18.8367 5.87113 20.2815 5.51944C21.7263 5.16775 23.244 5.26443 24.6325 5.79662C26.021 6.3288 27.2145 7.27124 28.0542 8.49851C28.8938 9.72577 29.3398 11.1797 29.3327 12.6666C29.3327 15.72 27.3327 18 25.3327 20L18.01 27.084C17.7616 27.3693 17.4553 27.5985 17.1114 27.7564C16.7676 27.9142 16.3941 27.9971 16.0157 27.9995C15.6374 28.0019 15.2629 27.9238 14.9171 27.7703C14.5712 27.6168 14.2621 27.3915 14.01 27.1093L6.66602 20C4.66602 18 2.66602 15.7333 2.66602 12.6666Z" stroke="#8B4513" stroke-width="2.66667" stroke-linecap="round" stroke-linejoin="round"/>
</svg>
